<svg width="25" height="25" viewBox="0 0 25 25" fill="none" xmlns="http://www.w3.org/2000/svg">
<g id="Group 1000004766">
<path id="Union" fill-rule="evenodd" clip-rule="evenodd" d="M0.660156 12.446C0.660156 19.7156 5.42537 24.446 13.1123 24.446C20.3819 24.446 25.008 20.8287 25.008 14.9156C25.008 14.6275 24.7744 14.3939 24.4862 14.3939H19.721C19.4329 14.3939 19.1993 14.6275 19.1993 14.9156C19.1993 17.9765 17.4602 19.4373 13.2167 19.4373C8.10364 19.4373 5.68284 17.6777 5.68284 12.495C5.68284 7.31244 8.10364 5.45474 13.2167 5.45474C17.4602 5.45474 19.1993 6.91561 19.1993 9.97648C19.1993 10.2646 19.4329 10.4982 19.721 10.4982H24.4862C24.7744 10.4982 25.008 10.2646 25.008 9.97648C25.008 4.06344 20.3471 0.446045 13.1123 0.446045C5.42537 0.446045 0.660156 5.17648 0.660156 12.446Z" fill="#294F74"/>
<path id="Union_2" d="M9.41016 12.4461C9.41016 9.91939 10.3428 9.0376 12.8356 9.0376C15.3284 9.0376 16.2611 9.91939 16.2611 12.4461C16.2611 14.9728 15.3284 15.8546 12.8356 15.8546C10.3428 15.8546 9.41016 14.9728 9.41016 12.4461Z" fill="#294F74"/>
</g>
</svg>
