<svg width="54" height="54" viewBox="0 0 54 54" fill="none" xmlns="http://www.w3.org/2000/svg">
<rect x="0.253906" y="0.29126" width="53.3333" height="53.3333" rx="5.33333" fill="#F2F4F7"/>
<path d="M26.9181 20.5485C23.3712 20.5485 20.5087 23.411 20.5087 26.9579C20.5087 30.5047 23.3712 33.3672 26.9181 33.3672C30.465 33.3672 33.3275 30.5047 33.3275 26.9579C33.3275 23.411 30.465 20.5485 26.9181 20.5485ZM26.9181 31.1235C24.6244 31.1235 22.7525 29.2516 22.7525 26.9579C22.7525 24.6641 24.6244 22.7922 26.9181 22.7922C29.2119 22.7922 31.0837 24.6641 31.0837 26.9579C31.0837 29.2516 29.2119 31.1235 26.9181 31.1235ZM33.59 18.7922C32.7619 18.7922 32.0931 19.461 32.0931 20.2891C32.0931 21.1172 32.7619 21.786 33.59 21.786C34.4181 21.786 35.0869 21.1204 35.0869 20.2891C35.0871 20.0925 35.0486 19.8977 34.9734 19.716C34.8983 19.5343 34.788 19.3692 34.649 19.2301C34.5099 19.0911 34.3448 18.9808 34.1631 18.9057C33.9814 18.8305 33.7866 18.792 33.59 18.7922ZM39.4119 26.9579C39.4119 25.2329 39.4275 23.5235 39.3306 21.8016C39.2337 19.8016 38.7775 18.0266 37.315 16.5641C35.8494 15.0985 34.0775 14.6454 32.0775 14.5485C30.3525 14.4516 28.6431 14.4672 26.9212 14.4672C25.1962 14.4672 23.4869 14.4516 21.765 14.5485C19.765 14.6454 17.99 15.1016 16.5275 16.5641C15.0619 18.0297 14.6087 19.8016 14.5119 21.8016C14.415 23.5266 14.4306 25.236 14.4306 26.9579C14.4306 28.6797 14.415 30.3922 14.5119 32.1141C14.6087 34.1141 15.065 35.8891 16.5275 37.3516C17.9931 38.8172 19.765 39.2704 21.765 39.3672C23.49 39.4641 25.1994 39.4485 26.9212 39.4485C28.6462 39.4485 30.3556 39.4641 32.0775 39.3672C34.0775 39.2704 35.8525 38.8141 37.315 37.3516C38.7806 35.886 39.2337 34.1141 39.3306 32.1141C39.4306 30.3922 39.4119 28.6829 39.4119 26.9579ZM36.6619 34.3266C36.4337 34.8954 36.1587 35.3204 35.7181 35.7579C35.2775 36.1985 34.8556 36.4735 34.2869 36.7016C32.6431 37.3547 28.74 37.2079 26.9181 37.2079C25.0962 37.2079 21.19 37.3547 19.5462 36.7047C18.9775 36.4766 18.5525 36.2016 18.115 35.761C17.6744 35.3204 17.3994 34.8985 17.1712 34.3297C16.5212 32.6829 16.6681 28.7797 16.6681 26.9579C16.6681 25.136 16.5212 21.2297 17.1712 19.586C17.3994 19.0172 17.6744 18.5922 18.115 18.1547C18.5556 17.7172 18.9775 17.4391 19.5462 17.211C21.19 16.561 25.0962 16.7079 26.9181 16.7079C28.74 16.7079 32.6462 16.561 34.29 17.211C34.8587 17.4391 35.2837 17.7141 35.7212 18.1547C36.1619 18.5954 36.4369 19.0172 36.665 19.586C37.315 21.2297 37.1681 25.136 37.1681 26.9579C37.1681 28.7797 37.315 32.6829 36.6619 34.3266Z" fill="#294F74"/>
</svg>
