<svg width="55" height="54" viewBox="0 0 55 54" fill="none" xmlns="http://www.w3.org/2000/svg">
<rect x="0.920654" y="0.29126" width="53.3333" height="53.3333" rx="5.33333" fill="#F2F4F7"/>
<rect x="14.4975" y="13.5846" width="26.1867" height="26.1867" rx="3.21767" stroke="#294F74" stroke-width="1.33333"/>
<path fill-rule="evenodd" clip-rule="evenodd" d="M21.1741 22.2972C21.7158 22.2972 22.2353 22.082 22.6184 21.699C23.0014 21.3159 23.2166 20.7964 23.2166 20.2547C23.2166 19.713 23.0014 19.1934 22.6184 18.8104C22.2353 18.4274 21.7158 18.2122 21.1741 18.2122C20.6324 18.2122 20.1129 18.4274 19.7298 18.8104C19.3468 19.1934 19.1316 19.713 19.1316 20.2547C19.1316 20.7964 19.3468 21.3159 19.7298 21.699C20.1129 22.082 20.6324 22.2972 21.1741 22.2972ZM22.8833 35.1437V23.8987H19.4649V35.1437H22.8833ZM25.1532 23.8987H28.5716V25.4046C29.0759 24.6149 30.1834 23.5518 32.243 23.5518C34.7009 23.5518 36.0358 25.1807 36.0358 28.2795C36.0358 28.4282 36.0495 29.1067 36.0495 29.1067V35.142H32.631V29.1085C32.631 28.2795 32.4567 26.6506 30.6142 26.6506C28.7699 26.6506 28.6144 28.6982 28.5716 30.0383V35.142H25.1532V23.8987Z" fill="#294F74"/>
<path d="M22.8833 35.1437V23.8987H19.4649V35.1437H22.8833Z" fill="#294F74"/>
<path d="M25.1532 23.8987H28.5716V25.4046C29.0759 24.6149 30.1834 23.5518 32.243 23.5518C34.7009 23.5518 36.0358 25.1807 36.0358 28.2795C36.0358 28.4282 36.0495 29.1067 36.0495 29.1067V35.142H32.631V29.1085C32.631 28.2795 32.4567 26.6506 30.6142 26.6506C28.7699 26.6506 28.6144 28.6982 28.5716 30.0383V35.142H25.1532V23.8987Z" fill="#294F74"/>
<path d="M21.1741 22.2972C21.7158 22.2972 22.2353 22.082 22.6184 21.699C23.0014 21.3159 23.2166 20.7964 23.2166 20.2547C23.2166 19.713 23.0014 19.1934 22.6184 18.8104C22.2353 18.4274 21.7158 18.2122 21.1741 18.2122C20.6324 18.2122 20.1129 18.4274 19.7298 18.8104C19.3468 19.1934 19.1316 19.713 19.1316 20.2547C19.1316 20.7964 19.3468 21.3159 19.7298 21.699C20.1129 22.082 20.6324 22.2972 21.1741 22.2972Z" fill="#294F74"/>
</svg>
