<svg width="55" height="54" viewBox="0 0 55 54" fill="none" xmlns="http://www.w3.org/2000/svg">
<rect x="0.698242" y="0.29126" width="53.3333" height="53.3333" rx="5.33333" fill="#F2F4F7"/>
<path d="M38.6262 17.2796L39.4327 17.2264C39.4223 17.0681 39.3653 16.9163 39.269 16.7902C39.1727 16.6641 39.0414 16.5692 38.8914 16.5173C38.7414 16.4655 38.5795 16.4591 38.4259 16.4988C38.2723 16.5386 38.1338 16.6228 38.0278 16.7409L38.6262 17.2796ZM37.823 22.0527C37.823 21.8388 37.738 21.6336 37.5868 21.4824C37.4355 21.3311 37.2304 21.2462 37.0165 21.2462C36.8026 21.2462 36.5975 21.3311 36.4462 21.4824C36.295 21.6336 36.21 21.8388 36.21 22.0527H37.823ZM16.0799 35.0234V34.2168C15.9068 34.2166 15.7381 34.2721 15.599 34.3752C15.4598 34.4783 15.3575 34.6234 15.3072 34.7891C15.2569 34.9548 15.2613 35.1323 15.3197 35.2954C15.3781 35.4584 15.4875 35.5983 15.6315 35.6944L16.0799 35.0234ZM17.6897 17.2796L18.4462 16.9973C18.3912 16.8501 18.2944 16.7221 18.1677 16.6291C18.0409 16.5361 17.8898 16.4822 17.7328 16.474C17.5759 16.4658 17.4199 16.5036 17.2842 16.5828C17.1484 16.662 17.0388 16.7792 16.9687 16.9199L17.6897 17.2796ZM24.132 31.7972L24.703 32.3666C24.7998 32.2694 24.8703 32.1491 24.9077 32.0171C24.9451 31.8851 24.9482 31.7457 24.9167 31.6121C24.8853 31.4786 24.8202 31.3553 24.7278 31.2538C24.6353 31.1524 24.5185 31.0763 24.3884 31.0326L24.132 31.7972ZM35.7842 18.8491L35.1874 19.3911L35.4777 19.7121L35.9051 19.6476L35.7842 18.8491ZM37.823 17.3329C37.9052 18.5878 37.8278 19.3492 37.6246 19.9234C37.4278 20.48 37.0826 20.9381 36.4584 21.5365L37.5746 22.7011C38.2811 22.0237 38.8263 21.3591 39.1456 20.4622C39.4569 19.5815 39.5215 18.562 39.4327 17.2264L37.823 17.3329ZM37.823 23.227V22.0527H36.21V23.2286H37.823V23.227ZM26.5482 22.185V23.7319H28.1612V22.185H26.5482ZM26.5482 23.7319V24.5384H28.1612V23.7319H26.5482ZM32.2501 16.4731C31.5005 16.4735 30.7583 16.6216 30.0659 16.9089C29.3735 17.1962 28.7444 17.617 28.2146 18.1474C27.6849 18.6778 27.2648 19.3074 26.9783 20.0001C26.6918 20.6929 26.5446 21.4353 26.545 22.185H28.158C28.1575 21.647 28.2631 21.1142 28.4686 20.617C28.6742 20.1199 28.9756 19.6681 29.3558 19.2874C29.7359 18.9068 30.1874 18.6048 30.6842 18.3987C31.1811 18.1926 31.7138 18.0864 32.2517 18.0862V16.4731H32.2501ZM36.2084 23.227C36.21 30.189 30.5758 35.8299 23.6287 35.8299V37.4429C31.4678 37.4429 37.823 31.0778 37.823 23.227H36.2084ZM16.9348 17.5619C17.8123 19.9041 21.1028 24.5384 27.3547 24.5384V22.9254C22.006 22.9254 19.1785 18.9572 18.4446 16.9973L16.9348 17.5619ZM16.9687 16.9199C15.2799 20.3009 15.0202 23.5819 16.2477 26.3757C17.4719 29.1615 20.106 31.3036 23.8771 32.5618L24.3884 31.0326C20.9124 29.8712 18.7139 27.9807 17.7236 25.7256C16.7364 23.4786 16.88 20.709 18.4123 17.6393L16.9687 16.9199ZM23.561 31.2278C22.5899 32.2005 19.6704 34.2168 16.0799 34.2168V35.8299C20.2189 35.8299 23.5271 33.5458 24.703 32.3666L23.561 31.2278ZM36.3826 18.3088C35.8611 17.7304 35.2239 17.2681 34.5122 16.9519C33.8006 16.6357 33.0305 16.4725 32.2517 16.4731V18.0862C33.4147 18.0862 34.4615 18.5878 35.1874 19.3911L36.3826 18.3088ZM35.9051 19.6476C37.19 19.4377 38.3633 18.7917 39.2279 17.8184L38.0278 16.7409C37.4129 17.4357 36.5782 17.8986 35.6632 18.0523L35.9051 19.6476ZM15.6315 35.6944C18.2784 37.4591 21.0528 37.4429 23.6287 37.4429V35.8299C20.9995 35.8299 18.7123 35.8121 16.5284 34.3523L15.6315 35.6944Z" fill="#294F74"/>
</svg>
